<?xml version="1.0" encoding="UTF-8"?><svg id="Capa_2" xmlns="http://www.w3.org/2000/svg" viewBox="0 0 234.3727 234.3727"><g id="Components"><path id="cb214efe-e3e1-498f-804e-e725b6714523_31" d="M117.1859,0C52.4659,0,0,52.4663,0,117.1867s52.4659,117.1859,117.1859,117.1859,117.1867-52.4659,117.1867-117.1859S181.906,0,117.1859,0ZM177.4834,170.3415c0,1.5466-1.2539,2.8001-2.8001,2.8001h-15.2823c-.3127-.0181-.6247-.0363-.9374-.0544l-3.1158-.3633c-1.1081-.1269-2.2162-.4177-3.1785-.9899-7.339-4.3418-4.3871-18.3747-2.825-25.7231,1.4624-6.8303,3.1332-13.6152,4.8229-20.3911.1639-.6447.318-1.2988.4819-1.9435,1.5349-6.1127,3.0426-12.4618,1.8249-18.6745-.1088-.5359-.3452-1.0537-.7259-1.4442-.5-.5087-1.0265-.7901-1.581-.8721-2.4979-.4086-5.4771,3.134-8.1019,7.43-2.2525,3.6967-4.2413,7.9474-5.4408,10.7452,0,.0091-.0091.0181-.0091.0272l-15.3631,30.3542c-.4766.9423-1.4427,1.536-2.4979,1.536h-11.1361c-1.0552,0-2.0213-.5937-2.4979-1.536l-15.3638-30.3542c0-.0091-.0091-.0181-.0091-.0272-1.1987-2.7978-3.1876-7.0486-5.44-10.7452-2.6256-4.2961-5.6047-7.8387-8.1019-7.43-.5454.082-1.0817.3633-1.5719.8721-.3905.3905-.6262.9083-.7266,1.4442-1.2259,6.2128.2908,12.5619,1.8166,18.6745.1639.6447.318,1.2988.4819,1.9435,1.689,6.7759,3.3606,13.5608,4.8229,20.3911,1.5621,7.3484,4.523,21.3814-2.825,25.7231-.9631.5722-2.0621.863-3.1793.9899l-3.0365.3543c-.3656.0211-.7304.0423-1.096.0634h-15.2022c-1.5462,0-2.8001-1.2535-2.8001-2.8001v-105.5471c0-1.9598,1.6036-3.5634,3.563-3.5634h21.3062l.0453.091,20.4277,38.9565,12.4746,23.8045c.4834.9227,1.4389,1.5005,2.4798,1.5005,1.0416,0,1.9971-.5778,2.4806-1.5005l12.4746-23.8045,20.4277-38.9565.0453-.091h20.8907c2.1973,0,3.9784,1.7811,3.9784,3.9784v105.1321Z" style="fill:#af95d7;"/></g></svg>