<?xml version="1.0" encoding="UTF-8"?><svg id="Capa_2" xmlns="http://www.w3.org/2000/svg" viewBox="0 0 342.1787 171.0282"><g id="Components"><g id="_6e82ddfc-f5df-4c96-87c7-2389f33c269d_13"><path d="M167.4897.2852h-39.9727c-4.3701,11.7109-6.9644,16.3892-11.3276,28.1021-3.4165,9.1724-7.5181,25.8525-7.8164,35.6626-.3091,10.1494,1.0024,20.5068-1.6113,30.4585-.9941,3.7847-2.6494,7.5615-5.6484,10.0747-4.998,4.189-12.5024,2.2842-17.2676-1.3594-4.4888-3.4321-7.4331-8.4702-10.0366-13.4854-8.2173-15.8296-12.9961-33.4512-19.2339-50.2129-4.8672-13.0801-9.7354-26.1602-14.6025-39.2402H0v166.5278h28.4019V41.895c7.5942,0,13.5312,6.2461,17.4277,12.2041,10.0244,15.3267,12.2949,34.3228,13.7412,52.1782.7358,9.0811,1.6816,18.3218,5.3013,26.6831,3.9722,9.1772,10.8223,16.042,21.2637,17.2178,36.5991,1.6567,32.1377-41.5322,30.0537-66.2153-1.0039-11.8945-.2441-24.8091,10.209-31.9497,8.3228-5.6851,18.8462-5.0195,23.0674,5.1172,3.3091,7.9482,2.7617,16.126.2178,24.21-3.918,12.4502-10.3242,24.0137-14.1226,36.501-3.3828,11.1201-4.6411,22.8828-3.6855,34.4668.8257,10.0186,5.2471,17.3682,16.2036,17.064,11.272-.313,16.5605-7.8486,20.4541-18.3799,7.0493-19.0679,2.5596-42.6436.7368-62.8906-3.6499-40.5449-1.7803-85.7207-1.7803-87.8164Z" style="fill:#0c0e0f;"/><path d="M341.7671,116.7783c-.4609-4.8857-1.311-9.7568-2.9224-14.3916-4.0835-11.7466-13.4307-21.3276-24.6851-26.437-22.354-10.1479-65.4512-3.8867-79.603,18.2368-3.8999,6.0972-5.2056,13.4053-3.8833,20.5107.6401,3.4419,2.0552,6.8999,4.7656,9.1162,2.9849,2.4404,7.0742,3.0215,10.9297,2.9834,6.3848-.0625,12.751-1.583,18.4761-4.4121,8.3672-4.1353,15.168-10.8994,23.3306-15.4258,3.3008-1.8301,7.0923-3.3154,10.7822-2.5244,14.5317,3.1147-1.2271,22.9404-6.4121,27.6187-8.5293,7.6958-19.8335,11.5937-31.2568,11.5937-35.415,0-50.4927-26.7666-50.4927-59.6094,0-37.4043,27.4141-64.4541,64.2734-68.3374,5.354-.564,10.9438-.5537,15.8979,1.5522,4.9541,2.106,9.1411,6.7075,9.4126,12.0845.5815,11.4824-12.3677,21.4209-4.5625,33.5181,2.7227,4.2202,8.6367,5.6616,13.3877,4.0327,4.751-1.6294,8.3174-5.7949,10.2334-10.4375,1.916-4.6421,2.374-9.75,2.4829-14.771.3271-15.1211-13.1123-28.1396-26.1782-34.3013-10.8135-5.0996-22.769-7.3779-34.688-7.3779-54.583,0-79.7119,39.9722-79.7124,85.2061,0,6.2974.5483,12.5986,1.6929,18.792,4.1157,22.2627,16.3037,43.0762,35.875,55.0601,20.4878,12.5444,51.6606,17.917,71.9893,2.6699,12.1489-9.1118,17.4927-25.0146,29.6392-34.4385.833-.6465,1.7432-1.2822,2.7915-1.3989,2.8208-.3135,4.6128,3.3838,3.8013,6.103-.8115,2.7197-3.1177,4.668-4.9634,6.8242-5.0659,5.9185-9.2852,20.3291.0747,24.8179,3.7725,1.8091,8.4995.1934,11.3994-2.8223,2.9004-3.0156,4.3286-7.1323,5.4019-11.1763,2.833-10.6782,3.7593-21.8599,2.7227-32.8589Z" style="fill:#0c0e0f;"/></g></g></svg>