<?xml version="1.0" encoding="UTF-8"?><svg id="Capa_2" xmlns="http://www.w3.org/2000/svg" viewBox="0 0 251.1942 233.107"><g id="Components"><path id="e7a19d23-7dd0-42d6-a454-01d955b2ce19_16" d="M251.1942,8.2866v218.9878c0,3.2213-2.6114,5.8327-5.8327,5.8327h-31.8311c-.6517-.0379-1.3018-.0756-1.9535-.1135l-6.4893-.7567c-2.3086-.2649-4.6167-.8703-6.6218-2.0623-15.2871-9.0436-9.1383-38.2741-5.8842-53.58,3.0462-14.2275,6.5271-28.3603,10.0464-42.4743.3404-1.3432.6619-2.7055,1.0028-4.0487,3.1973-12.7329,6.3378-25.9576,3.8024-38.8985-.2268-1.1163-.7187-2.1947-1.5132-3.0083-1.0407-1.0595-2.1381-1.646-3.292-1.8163-5.2029-.8513-11.4085,6.5272-16.8765,15.4761-4.692,7.7002-8.8353,16.5546-11.3328,22.3818,0,.0189-.0189.0379-.0189.0568l-32.001,63.2276c-.993,1.962-3.0051,3.1988-5.2041,3.1988h-23.1951c-2.199,0-4.2111-1.2368-5.2041-3.1988l-32.001-63.2276c0-.0189-.0189-.0379-.0189-.0568-2.4975-5.8272-6.6408-14.6815-11.3328-22.3818-5.468-8.9489-11.6732-16.3274-16.876-15.4761-1.1354.1703-2.2518.7568-3.2735,1.8163-.8134.8135-1.3053,1.8919-1.5137,3.0083-2.5539,12.9409.6056,26.1656,3.7839,38.8985.3409,1.3432.6624,2.7055,1.0033,4.0487,3.5188,14.114,7.0001,28.2468,10.0459,42.4743,3.2541,15.3059,9.4219,44.5365-5.8837,53.58-2.0056,1.1919-4.2948,1.7974-6.6218,2.0623l-6.3257.7376c-.7616.0442-1.5212.0884-2.2828.1326H5.8327c-3.2213,0-5.8327-2.6114-5.8327-5.8327V7.4221C0,3.3399,3.3399,0,7.4221,0h44.3797l.0942.1891,42.5504,81.1457,25.9844,49.5844c1.0069,1.9214,2.997,3.1253,5.1663,3.1253h0c2.1693,0,4.1593-1.2039,5.1663-3.1253l25.9848-49.5844L199.2981.1891l.0942-.1891h43.5152c4.5766,0,8.2866,3.71,8.2866,8.2866Z" style="fill:#d5fcd3;"/></g></svg>