<?xml version="1.0" encoding="UTF-8"?><svg id="Capa_2" xmlns="http://www.w3.org/2000/svg" viewBox="0 0 376.1167 56.8531"><g id="Components"><g id="_1cb46b0e-a1f3-48f8-8e02-30ba78c57e89_13"><path d="M32.1699,31.913c-.3999,1.21-.8896,2.5999-2.29,2.9399-.9297.22-1.6299-.27-2.21-.96-.46-.5601-.8496-1.25-1.1997-1.79-1.1201-1.74-2.1802-3.53-3.1899-5.3401-.2402-.4399-.4902-.8799-.7202-1.3301l-4.8799-9.3398c-1.4399-2.76-2.8701-5.51-4.3101-8.27-.0103-.02-.02-.05-.04-.09-.02-.04-.04-.08-.0698-.14-.3701-.8-1.46-3.3201-1.7402-3.3201H0v51.51h10.73V22.233h1.5l1.7603,3.5098,1.5737,3.1211c1.2529,2.4858,2.4219,5.0127,3.5562,7.5552.5322,1.1938,1.085,2.3789,1.6802,3.5439.8296,1.6099,1.6997,3.9199,3.0596,5.3899.4102.45.8701.8201,1.3804,1.0601.8696.4199,1.8999.49,3.1499.01.46-.1802.8701-.4102,1.23-.7002,2.0688-1.6392,2.5957-4.6802,3.3564-7.0818.8838-2.7905,1.6387-5.6252,2.7002-8.3567.7075-1.8215,1.52-3.9736,2.8662-5.4202,1.1182-1.2012,2.8989-2.6321,4.623-2.6321l1.5439.001v33.5498h10.73V4.2728h-11.4497c-4.6504,8.8801-8.6401,18.0901-11.8203,27.6401Z" fill="currentColor"/><path d="M89.2378,20.5504c-1.5029-1.168-3.2549-2.0498-5.2578-2.6475-2.0029-.5957-4.1494-.8936-6.4385-.8936-2.0986,0-4.1123.2744-6.0439.8223-1.9316.5488-3.6963,1.3711-5.2939,2.4678-1.5977,1.0977-2.9326,2.4922-4.0059,4.1846-1.0723,1.6934-1.7764,3.6846-2.1104,5.9736h9.085c.3809-1.8125,1.252-3.2197,2.6113-4.2207,1.3594-1.002,3.0156-1.502,4.9717-1.502,2.1924,0,3.9336.5488,5.2217,1.6445,1.2871,1.0977,1.9316,2.8613,1.9316,5.2939v9.585c0,1.1445-.2275,2.1943-.6797,3.1475-.4541.9551-1.0859,1.7773-1.8955,2.4678-.8115.6924-1.7656,1.2412-2.8613,1.6455-1.0977.4062-2.2891.6084-3.5771.6084-1.5732,0-2.8965-.4053-3.9697-1.2158-1.0732-.8105-1.6094-1.9551-1.6094-3.4336,0-2.6592,2.1323-4.3308,4.479-5.1079,1.4028-.4646,2.8872-.6304,4.3623-.7139.8931-.0508,1.833-.0854,2.5957-.5518,1.084-.6631,1.521-2.2036.9463-3.3369-.0459-.0908-.0947-.1755-.1465-.2544-.6606-1.0117-1.7583-.9902-2.8896-1.0571-1.4785-.0874-2.834-.0696-4.2729.0752-2.9194.2944-6.2656.9326-8.8662,2.3628-1.9072,1.0488-3.4453,2.4316-4.6133,4.1484-1.1689,1.7168-1.7529,3.8398-1.7529,6.3662,0,3.3389,1.0127,5.9141,3.04,7.7256,2.0264,1.8125,4.6377,2.7188,7.833,2.7188,2.8135,0,5.2217-.5723,7.2246-1.7168,1.0444-.5969,2.3745-1.4111,3.04-2.4417.603-.9338.8945-1.6492,1.9043-2.3015.2822-.1826.5894-.3464.9238-.3789.335-.0325.7026.093.8774.3804.1309.2148.1362.4807.1377.7324.002.3125.1797,4.6528.4136,4.6528h9.5137v-24.1777c0-2.5273-.4287-4.709-1.2871-6.5459-.8584-1.835-2.0391-3.3369-3.541-4.5059Z" fill="currentColor"/><path d="M115.6333,20.0846c-1.4551,1.3359-2.6357,3.3623-3.541,6.0811h-1.502l-.9307-8.084h-9.5137v37.6982h10.4443v-17.6689c0-1.5732.2607-2.9922.7861-4.2559.5244-1.2627,1.2275-2.3359,2.1104-3.2188.8818-.8818,1.8955-1.5498,3.04-2.0029,1.1445-.4531,2.3613-.6797,3.6484-.6797h5.0791v-9.8721h-4.0771c-2.2422,0-4.0898.6689-5.5439,2.0029Z" fill="currentColor"/><rect x="130.0464" y="18.0817" width="10.4443" height="37.6982" fill="currentColor"/><rect x="129.7603" y="4.276" width="10.9443" height="8.9414" fill="currentColor"/><path d="M175.2905,20.5504c-1.5029-1.168-3.2549-2.0498-5.2578-2.6475-2.0029-.5957-4.1494-.8936-6.4385-.8936-2.0986,0-4.1123.2744-6.0439.8223-1.9316.5488-3.6963,1.3711-5.2939,2.4678-1.5977,1.0977-2.9326,2.4922-4.0059,4.1846-1.0723,1.6934-1.7764,3.6846-2.1104,5.9736h9.085c.3809-1.8125,1.252-3.2197,2.6113-4.2207,1.3594-1.002,3.0156-1.502,4.9717-1.502,2.1924,0,3.9336.5488,5.2217,1.6445,1.2871,1.0977,1.9316,2.8613,1.9316,5.2939v1.2871h-4.3643c-2.5283,0-5.0195.2275-7.4746.6797-2.457.4541-4.6387,1.2051-6.5459,2.2539-1.9072,1.0488-3.4453,2.4316-4.6133,4.1484-1.1689,1.7168-1.7529,3.8398-1.7529,6.3662,0,3.3389,1.0127,5.9141,3.04,7.7256,2.0264,1.8125,4.6377,2.7188,7.833,2.7188,2.8135,0,5.2217-.5723,7.2246-1.7168,2.0029-1.1445,3.7432-2.8369,5.2227-5.0791h1.4307l.6436,5.7227h9.5137v-24.1777c0-2.5273-.4287-4.709-1.2871-6.5459-.8584-1.835-2.0391-3.3369-3.541-4.5059ZM169.2817,44.4059c-.4541.9551-1.0859,1.7773-1.8955,2.4678-.8115.6924-1.7656,1.2412-2.8613,1.6455-1.0977.4062-2.2891.6084-3.5771.6084-1.5732,0-2.8965-.4053-3.9697-1.2158-1.0732-.8105-1.6094-1.9551-1.6094-3.4336,0-1.0488.2734-1.9434.8223-2.6826.5479-.7393,1.2988-1.3467,2.2529-1.8242.9541-.4766,2.0752-.834,3.3623-1.0732,1.2881-.2383,2.6465-.3574,4.0771-.3574h4.0781v2.7178c0,1.1445-.2275,2.1943-.6797,3.1475Z" fill="currentColor"/><path d="M286.022,20.5504c-1.5029-1.168-3.2549-2.0498-5.2578-2.6475-2.0029-.5957-4.1494-.8936-6.4385-.8936-2.0986,0-4.1123.2744-6.0439.8223-1.9316.5488-3.6963,1.3711-5.2939,2.4678-1.5977,1.0977-2.9326,2.4922-4.0059,4.1846-1.0723,1.6934-1.7764,3.6846-2.1104,5.9736h9.085c.3809-1.8125,1.252-3.2197,2.6113-4.2207,1.3594-1.002,3.0156-1.502,4.9717-1.502,2.1924,0,3.9336.5488,5.2217,1.6445,1.2871,1.0977,1.9316,2.8613,1.9316,5.2939v1.2871h-4.3643c-2.5283,0-5.0195.2275-7.4746.6797-2.457.4541-4.6387,1.2051-6.5459,2.2539-1.9072,1.0488-3.4453,2.4316-4.6133,4.1484-1.1689,1.7168-1.7529,3.8398-1.7529,6.3662,0,3.3389,1.0127,5.9141,3.04,7.7256,2.0264,1.8125,4.6377,2.7188,7.833,2.7188,2.8135,0,5.2217-.5723,7.2246-1.7168,2.0029-1.1445,3.7432-2.8369,5.2227-5.0791h1.4307l.6436,5.7227h9.5137v-24.1777c0-2.5273-.4287-4.709-1.2871-6.5459-.8584-1.835-2.0391-3.3369-3.541-4.5059ZM280.0132,44.4059c-.4541.9551-1.0859,1.7773-1.8955,2.4678-.8115.6924-1.7656,1.2412-2.8613,1.6455-1.0977.4062-2.2891.6084-3.5771.6084-1.5732,0-2.8965-.4053-3.9697-1.2158-1.0732-.8105-1.6094-1.9551-1.6094-3.4336,0-1.0488.2734-1.9434.8223-2.6826.5479-.7393,1.2988-1.3467,2.2529-1.8242.9541-.4766,2.0752-.834,3.3623-1.0732,1.2881-.2383,2.6465-.3574,4.0771-.3574h4.0781v2.7178c0,1.1445-.2275,2.1943-.6797,3.1475Z" fill="currentColor"/><path d="M312.4175,20.0846c-1.4551,1.3359-2.6357,3.3623-3.541,6.0811h-1.502l-.9307-8.084h-9.5137v37.6982h10.4443v-17.6689c0-1.5732.2607-2.9922.7861-4.2559.5244-1.2627,1.2275-2.3359,2.1104-3.2188.8818-.8818,1.8955-1.5498,3.04-2.0029,1.1445-.4531,2.3613-.6797,3.6484-.6797h5.0791v-9.8721h-4.0771c-2.2422,0-4.0898.6689-5.5439,2.0029Z" fill="currentColor"/><rect x="365.4585" y="18.0817" width="10.4443" height="37.6982" fill="currentColor"/><rect x="365.1724" y="4.276" width="10.9443" height="8.9414" fill="currentColor"/><path d="M251.4219,33.3927c-1.332-3.8308-4.3804-6.9556-8.0513-8.6221-7.2905-3.3096-21.3462-1.2676-25.9619,5.9478-1.2715,1.9888-1.6978,4.3721-1.2666,6.6895.209,1.1226.6704,2.2505,1.5547,2.9731.9731.7959,2.3071.9856,3.5645.9731,2.0825-.0205,4.1587-.5164,6.0259-1.439,2.729-1.3486,4.9468-3.5547,7.6094-5.031,1.0762-.5969,2.313-1.0813,3.5166-.8235,4.7393,1.0161-.4004,7.4819-2.0913,9.0078-2.7822,2.51-6.4688,3.7813-10.1943,3.7813-11.5503,0-16.4678-8.73-16.4678-19.4414,0-12.1991,8.9409-21.0212,20.9619-22.2877,1.7461-.184,3.5693-.1807,5.1855.5062,1.6157.6868,2.981,2.1877,3.0698,3.9412.1895,3.7451-4.0337,6.9866-1.4883,10.9319.8882,1.3765,2.8169,1.8464,4.3667,1.3152,1.5493-.5313,2.7124-1.8899,3.3374-3.4041.6245-1.514.7739-3.1799.8096-4.8175.1069-4.9316-4.2764-9.1776-8.5376-11.1871-3.5269-1.6632-7.4263-2.4064-11.3135-2.4064-17.8022,0-25.9976,13.0367-25.9976,27.7897,0,2.0537.1787,4.1089.5518,6.1289,1.3423,7.2607,5.3174,14.0488,11.7007,17.9573,6.6816,4.0916,16.8486,5.8435,23.4785.8708,3.9624-2.9717,5.7056-8.1582,9.667-11.2319.2715-.2109.5684-.418.9102-.4561.9199-.1025,1.5049,1.1035,1.2397,1.9902-.2646.8872-1.0166,1.5225-1.6187,2.2258-1.6523,1.9302-3.0283,6.6301.0244,8.094,1.2305.5903,2.772.0632,3.7178-.9204.9458-.9834,1.4121-2.3262,1.7617-3.645.9243-3.4827,1.2261-7.1294.8882-10.7168-.1504-1.5933-.4277-3.1821-.9531-4.6938Z" fill="currentColor"/><path d="M354.2642,20.5504c-1.5029-1.168-3.2549-2.0498-5.2578-2.6475-2.0029-.5957-4.1494-.8936-6.4385-.8936-2.0986,0-4.1123.2744-6.0439.8223-1.9316.5488-3.6963,1.3711-5.2939,2.4678-1.5977,1.0977-2.9326,2.4922-4.0059,4.1846-1.0723,1.6934-1.7764,3.6846-2.1104,5.9736h9.085c.3809-1.8125,1.252-3.2197,2.6113-4.2207,1.3594-1.002,3.0156-1.502,4.9717-1.502,2.1924,0,3.9336.5488,5.2217,1.6445,1.2871,1.0977,1.9316,2.8613,1.9316,5.2939v9.585c0,1.1445-.2275,2.1943-.6797,3.1475-.4541.9551-1.0859,1.7773-1.8955,2.4678-.8115.6924-1.7656,1.2412-2.8613,1.6455-1.0977.4062-2.2891.6084-3.5771.6084-1.5732,0-2.8965-.4053-3.9697-1.2158-1.0732-.8105-1.6094-1.9551-1.6094-3.4336,0-2.6592,2.1323-4.3308,4.479-5.1079,1.4028-.4646,2.8872-.6304,4.3623-.7139.8931-.0508,1.833-.0854,2.5957-.5518,1.084-.6631,1.521-2.2036.9463-3.3369-.0459-.0908-.0947-.1755-.1465-.2544-.6606-1.0117-1.7583-.9902-2.8896-1.0571-1.4785-.0874-2.834-.0696-4.2729.0752-2.9194.2944-6.2656.9326-8.8662,2.3628-1.9072,1.0488-3.4453,2.4316-4.6133,4.1484-1.1689,1.7168-1.7529,3.8398-1.7529,6.3662,0,3.3389,1.0127,5.9141,3.04,7.7256,2.0264,1.8125,4.6377,2.7188,7.833,2.7188,2.8135,0,5.2217-.5723,7.2246-1.7168,1.0444-.5969,2.3745-1.4111,3.04-2.4417.603-.9338.8945-1.6492,1.9043-2.3015.2822-.1826.5894-.3464.9238-.3789.335-.0325.7026.093.8774.3804.1309.2148.1362.4807.1377.7324.002.3125.1797,4.6528.4136,4.6528h9.5137v-24.1777c0-2.5273-.4287-4.709-1.2871-6.5459-.8584-1.835-2.0391-3.3369-3.541-4.5059Z" fill="currentColor"/></g></g></svg>